<svg xmlns="http://www.w3.org/2000/svg" viewBox="0 0 300 346.06"><defs><style>.cls-1{fill:#fff;}</style></defs><title>borsetta_icon</title><g id="Layer_2" data-name="Layer 2"><g id="Layer_1-2" data-name="Layer 1"><g id="eDZzPb.tif"><path class="cls-1" d="M0,205.08v-1c1.31-1.24,2.73-2.37,3.91-3.73a173.82,173.82,0,0,1,60-44.72c4.65-2.12,7.93-4.21,7.53-9.95-.15-2.22.78-4.58,1.48-6.79,8.89-28.25,28.89-44.65,56.61-52.57,5.36-1.53,11-2.18,16.47-3.24h9c5.49,1,11.05,1.81,16.47,3.18C206,95,228.91,123.74,230.25,149.91a5.6,5.6,0,0,0,2.87,4c26.25,11.47,48.25,28.56,66.88,50.17v1c-.95,1.33-2,2.61-2.85,4q-39.72,66.14-79.31,132.33c-2.31,3.89-4.31,4.56-8.59,3.14q-59-19.6-118.13-.09c-1.84.6-3.72,1.06-5.6,1.59-1.46-2.39-2.69-4.35-3.88-6.34q-39.3-65.5-78.61-131A29.78,29.78,0,0,0,0,205.08Zm267.5,1.71c-9.29-6.63-18-13.9-27.7-19.6-36.38-21.45-75.83-28-117.34-21.89C90.3,170,61.52,182.66,36.88,204.24c-3,2.59-3.24,4.47-1.18,7.87q29.74,49.11,59.09,98.47c2,3.37,3.8,4.43,7.83,3.48a205.29,205.29,0,0,1,94.95-.08c3.75.88,5.79.36,7.94-3.26,19.42-32.8,39.12-65.44,58.73-98.13C265.17,211,266,209.44,267.5,206.79Zm-66.17-63.71c-4.57-19.28-30.88-34.67-55.54-33.07-20.13,1.31-44.09,18.36-45.44,32.72A218.24,218.24,0,0,1,201.33,143.08Z"/><path class="cls-1" d="M131.23,258.39l7.59-12.86c-7-7.66-9.45-16.41-6.73-26.36s10.73-16.34,19.26-15.65c8.7.7,16.28,8.58,17.53,18.39,1,7.88-.26,15.17-5.56,21.53-.8,1-.78,3.36-.16,4.63,1.72,3.56,4,6.87,5.92,10.18C160,269.33,141.07,269.38,131.23,258.39Z"/></g><path class="cls-1" d="M16.89,86.09V.74c5.05-.73,9.8,0,13.28,4.14,5.62,6.65,5.46,13.89,1.23,21.33.9.57,1.69,1,2.44,1.55,10.54,7.17,14.81,17.41,14,29.8-.73,11.68-6,20.78-16.59,26.31A24.5,24.5,0,0,1,16.89,86.09Zm8-53.52V77.68c8.37-1,15.4-11.33,15.4-22.53S33.25,33.54,24.89,32.57ZM25,10.92v9.72C27.15,17.56,27.25,14.53,25,10.92Z"/><path class="cls-1" d="M261.39,62.69V50.59l-3.5,2.28-5.23-5.61a75.73,75.73,0,0,1,6.7-4.63A3.63,3.63,0,0,0,261.58,39c-.07-12.66,0-25.33,0-38.24A17.39,17.39,0,0,1,277.8,6.64c5.92,6.65,8.39,14.75,8.72,23.35.4,10.79.09,21.61.09,32.64H279V46.71c-2.9,0-5.57-.12-8.22.1-.55,0-1.4,1.35-1.43,2.1-.16,3.53-.07,7.08-.08,10.62v3.16Zm8-53V38.79c2.77,0,5.37.13,7.93-.09a2.58,2.58,0,0,0,1.58-1.9,41.19,41.19,0,0,0-2.21-17C275.28,15.93,273.41,12.34,269.42,9.67Z"/><path class="cls-1" d="M107.39,55.6v7h-8V.71c4.84-.69,9.56,0,13.29,3.84,7.36,7.63,8.84,17.12,8.11,27.17a31.78,31.78,0,0,1-7.22,18.68c4.3,3.14,6.9,8.36,13,8.81v7.37C118,67.3,113.76,60.14,107.39,55.6Zm.18-44.86v34.2C115.25,38.28,115.1,16.94,107.57,10.74Z"/><path class="cls-1" d="M50.59,23.79c0-6.46,1.86-12.31,6.32-17.1C65-2,77.28-1.29,84.39,8.24a27.19,27.19,0,0,1,.67,30.43C76.72,51,60.4,49.92,53.65,36.38c-1.9-3.8-2.58-8.21-3.81-12.35Zm31.1.06A17.38,17.38,0,0,0,77.55,12c-4.19-4.86-10.49-5-14.88-.31-5.86,6.22-5.91,18.07-.09,24.36,4.43,4.79,10.82,4.67,15.07-.33A17.45,17.45,0,0,0,81.69,23.85Z"/><path class="cls-1" d="M189.59,59.9C188,62,186.64,63.84,185,66,172.7,56.33,167.58,43.6,167.81,28c-.92.58-1.45.88-1.95,1.23s-.86.71-2,1.7a25.34,25.34,0,0,0-2.09-3,37.9,37.9,0,0,0-3.41-2.77c2.91-2.05,5.12-3.82,7.55-5.23a3.27,3.27,0,0,0,1.94-3.27c-.09-5.21,0-10.42,0-16,1.31-.06,2.65-.18,4-.19,4.38,0,8.76,0,13.14,0,1.62,0,2.44.41,2.32,2.18s0,3.34,0,5.53c-3.13,0-6.07.09-9,0-2-.09-2.94.53-2.77,2.67.14,1.74,0,3.5,0,5.45H182v7.25c-6.46,1.1-6.52,1.1-6.4,7.78A35.59,35.59,0,0,0,187.7,58.23C188.24,58.72,188.8,59.2,189.59,59.9Z"/><path class="cls-1" d="M148.4,0V8c-.64.21-1.25.42-1.87.6-5.05,1.49-7.52,6.61-5.09,11.26a36.54,36.54,0,0,0,4.95,6.71c3.48,4,7,8,8.57,13.28A25.94,25.94,0,0,1,151.74,62a36.1,36.1,0,0,1-13.29,12.15l-3.23-6.4c2.87-2.61,5.73-4.76,8-7.4,6.95-8,6.91-17.17.23-25.35-2.83-3.46-6-6.73-8.29-10.51A15.39,15.39,0,0,1,140.24,3C142.54,1.63,145.35,1.09,148.4,0Z"/><path class="cls-1" d="M218.4.79V8l-5.57.36V62.66H205c0-17.52,0-34.92,0-52.33,0-1.54-.57-2.23-2.13-2.14-1.1.07-2.2,0-3.57,0-.13-2.55-.24-4.84-.37-7.41Z"/><path class="cls-1" d="M234.81,8.38,229.4,8c-.17-2.44-.33-4.8-.52-7.51,6.17,0,12.2,0,18.22.07.48,0,1.29,1,1.35,1.58.18,1.83.06,3.68.06,5.46-.46.24-.69.45-.94.47-5,.49-5,.48-5,5.7V62.62h-7.74Z"/><path class="cls-1" d="M70,51.32l5.4,9c-2.9,3.31-7.07,3.42-10.89.16Z"/></g></g></svg>