<svg xmlns="http://www.w3.org/2000/svg" viewBox="0 0 10 10"><defs><style>.cls-1{fill:#fff;}</style></defs><title>Account</title><g id="Layer_2" data-name="Layer 2"><g id="Layer_1-2" data-name="Layer 1"><path id="star" class="cls-1" d="M9.63,5.55a1.21,1.21,0,0,1,0-1L9.9,4a1.25,1.25,0,0,0-.67-1.64L8.59,2a1.26,1.26,0,0,1-.68-.68L7.7.85A1.25,1.25,0,0,0,6.07.16L5.55.37a1.21,1.21,0,0,1-1,0L4,.1A1.25,1.25,0,0,0,2.31.77L2,1.41a1.26,1.26,0,0,1-.68.68L.85,2.3A1.25,1.25,0,0,0,.16,3.93l.21.52a1.21,1.21,0,0,1,0,1L.1,6.05A1.25,1.25,0,0,0,.77,7.69L1.41,8a1.26,1.26,0,0,1,.68.68l.21.51a1.25,1.25,0,0,0,1.63.69l.52-.21a1.21,1.21,0,0,1,1,0l.65.27a1.25,1.25,0,0,0,1.64-.67L8,8.59a1.26,1.26,0,0,1,.68-.68l.51-.21a1.25,1.25,0,0,0,.69-1.63Zm-1.2-.07h0a1.24,1.24,0,0,1-.68,1.63h0l-.41.17-.23.54a1.27,1.27,0,0,1-1.77.62l-.41-.18-.41.17h0a1.24,1.24,0,0,1-1.63-.68l-.17-.41-.54-.23a1.27,1.27,0,0,1-.62-1.77l.17-.41-.16-.41h0a1.24,1.24,0,0,1,.68-1.63h0l.41-.17.23-.54a1.27,1.27,0,0,1,1.77-.62l.41.17.41-.16h0a1.24,1.24,0,0,1,1.63.68h0l.17.41.54.23a1.27,1.27,0,0,1,.62,1.77l-.17.41ZM5,2.85A2.15,2.15,0,1,0,7.15,5,2.15,2.15,0,0,0,5,2.85ZM5,6.08A1.08,1.08,0,1,1,6.08,5,1.09,1.09,0,0,1,5,6.08Z"/></g></g></svg>