<svg xmlns="http://www.w3.org/2000/svg" viewBox="0 0 78.45 24.75"><defs><style>.cls-1{fill:#fff;}</style></defs><title>Borsetta Logo</title><g id="Layer_2" data-name="Layer 2"><g id="Layer_1-2" data-name="Layer 1"><path class="cls-1" d="M27.88,17.07a5.5,5.5,0,0,0,4,2V17a3.49,3.49,0,0,1-2.57-1.4A9.24,9.24,0,0,0,28,14.51l-.12-.08.1-.11a9.64,9.64,0,0,0,2.17-6.49C30.18,3.44,28,0,25.19,0H24a13.1,13.1,0,0,1,.2,2.26V16.91a5.86,5.86,0,0,1-.09,1H26.2V15.81l.18.08A4.94,4.94,0,0,1,27.88,17.07ZM26.2,2.39l.21.19a7.26,7.26,0,0,1,1.75,5.25,7.26,7.26,0,0,1-1.75,5.25l-.21.19Z"/><path class="cls-1" d="M0,24.75H1.1c4.32,0,7.83-4,7.83-9A9,9,0,0,0,4.07,7.49l-.14-.07L4,7.3A4.81,4.81,0,0,0,5,4.42,4.17,4.17,0,0,0,1.1,0H0A5.86,5.86,0,0,1,.09,1V23.73A5.86,5.86,0,0,1,0,24.75ZM2.11,2.4l.22.26a2.79,2.79,0,0,1,.6,1.76,2.79,2.79,0,0,1-.6,1.76l-.22.27Zm0,6.54.16,0c2.69.66,4.64,3.52,4.64,6.8S5,21.93,2.27,22.59l-.16,0Z"/><path class="cls-1" d="M40.41,13.51c0-2.82-1.54-4.54-2.78-5.92-1.1-1.22-1.77-2-1.77-3.17A2.42,2.42,0,0,1,38.2,2V0a4.45,4.45,0,0,0-3.44,1.74,4.37,4.37,0,0,0-.92,2.68c0,2,1.16,3.27,2.28,4.52s2.26,2.52,2.26,4.57c0,3.49-3.23,5.49-3.88,5.86l.91,1.81C36.18,20.76,40.41,18.27,40.41,13.51Z"/><path class="cls-1" d="M48.92,18.79l1.21-1.62a10.4,10.4,0,0,1-4-8.2V6.75l.1,0a7,7,0,0,1,1.44-.15H48v-2h-.36a8.34,8.34,0,0,0-1.4.11l-.14,0V2H49.5V0H44a5.86,5.86,0,0,1,.09,1V5.3l-.08,0A8.85,8.85,0,0,0,41.52,7L43,8.46a6,6,0,0,1,.92-.75l.2-.13V9A12.43,12.43,0,0,0,48.92,18.79Z"/><path class="cls-1" d="M58.59,0H53.07a5.86,5.86,0,0,1,.09,1V2h1.71V16.91a5.86,5.86,0,0,1-.09,1h2.11V2h1.7Z"/><path class="cls-1" d="M67.31,0H61.79a5.86,5.86,0,0,1,.09,1V2h1.71V16.91a5.86,5.86,0,0,1-.09,1h2.11V2h1.7Z"/><path class="cls-1" d="M76.34,17.93h2.11V9.53C78.45,4.19,75.76,0,72.33,0h-1.1a7,7,0,0,1,.08,1V11.88l-.07,0a8.48,8.48,0,0,0-2.47,1.69L70.2,15a6.62,6.62,0,0,1,.92-.74l.19-.14v2.75a7,7,0,0,1-.08,1h2.11v-4.6l.1,0a6.36,6.36,0,0,1,1.44-.16h1.55v3.76A5.86,5.86,0,0,1,76.34,17.93Zm-1.46-6.8a9.54,9.54,0,0,0-1.4.11l-.14,0v-9l.19.12c1.44.85,2.9,3.39,2.9,7.15v1.6Z"/><path class="cls-1" d="M15.42,0C12.35,0,9.86,3,9.86,6.69s2.49,6.7,5.56,6.7,5.55-3,5.55-6.7S18.48,0,15.42,0Zm0,11.36c-1.95,0-3.54-2.09-3.54-4.67S13.47,2,15.42,2,19,4.12,19,6.69,17.37,11.36,15.42,11.36Z"/><path class="cls-1" d="M13.94,17.36a2.21,2.21,0,0,0,3,0l-1.48-2.47Z"/></g></g></svg>