<svg xmlns="http://www.w3.org/2000/svg" viewBox="0 0 10 10"><defs><style>.cls-1{fill:#fff;}</style></defs><title>Business Services</title><g id="Layer_2" data-name="Layer 2"><g id="Layer_1-2" data-name="Layer 1"><path id="rings" class="cls-1" d="M8.19,3a4.25,4.25,0,0,1,.06.71,5.27,5.27,0,0,1,0,.57A2.75,2.75,0,1,1,3.81,7.5a3.76,3.76,0,1,0-1.14-.16A4,4,0,0,0,3,8.19,3.75,3.75,0,1,0,8.19,3ZM1,3.75A2.75,2.75,0,0,1,6.2,2.5a4,4,0,0,0-.78.1A3.73,3.73,0,0,0,2.6,5.42a1.94,1.94,0,0,0,.95.34A2.75,2.75,0,0,1,5.76,3.55a2.63,2.63,0,0,1,.49,0l.24,0c0,.07,0,.15,0,.23a2.75,2.75,0,0,1-5.5,0Z"/></g></g></svg>