<svg xmlns="http://www.w3.org/2000/svg" viewBox="0 0 10 10.03"><defs><style>.cls-1{fill:#fff;}</style></defs><title>Inventory</title><g id="Layer_2" data-name="Layer 2"><g id="Layer_1-2" data-name="Layer 1"><path id="shopping_bag" class="cls-1" d="M9,3H8.44A3.83,3.83,0,0,0,5,0,3.74,3.74,0,0,0,1.54,3H1a1,1,0,0,0-1,1v5a1,1,0,0,0,1,1H9a1,1,0,0,0,1-1v-5A1,1,0,0,0,9,3ZM5,1A2.79,2.79,0,0,1,7.41,3H2.55A2.68,2.68,0,0,1,5,1ZM9,8.53a.5.5,0,0,1-.5.5h-7a.5.5,0,0,1-.5-.5v-4A.5.5,0,0,1,1.5,4h7a.5.5,0,0,1,.5.5Z"/></g></g></svg>