<svg xmlns="http://www.w3.org/2000/svg" viewBox="0 0 10 10"><defs><style>.cls-1{fill:#fff;}</style></defs><title>Marketplace</title><g id="Layer_2" data-name="Layer 2"><g id="Layer_1-2" data-name="Layer 1"><path id="object_distribution_round" class="cls-1" d="M9,8V5H9a1,1,0,0,0,1-1V1A1.12,1.12,0,0,0,8.9,0h-3a1,1,0,0,0-1,1h-3A1,1,0,0,0,1,2V5H1A1,1,0,0,0,0,6V9a.9.9,0,0,0,.9,1h3a1,1,0,0,0,1-1h3A1.07,1.07,0,0,0,9,8ZM4,8.5a.5.5,0,0,1-.5.5h-2A.5.5,0,0,1,1,8.5v-2A.5.5,0,0,1,1.5,6h2a.5.5,0,0,1,.5.5Zm4-1c0,.28-.32.47-.6.47H5V6A1.12,1.12,0,0,0,3.9,5H2V2.53c0-.27.12-.53.4-.53H5V4a.9.9,0,0,0,.9,1H8Zm1-4a.5.5,0,0,1-.5.5h-2A.5.5,0,0,1,6,3.5v-2A.5.5,0,0,1,6.5,1h2a.5.5,0,0,1,.5.5Z"/></g></g></svg>