<svg xmlns="http://www.w3.org/2000/svg" viewBox="0 0 10 8.06"><defs><style>.cls-1{fill:#fff;}</style></defs><title>Titling &amp;amp; Tracking</title><g id="Layer_2" data-name="Layer 2"><g id="Layer_1-2" data-name="Layer 1"><path id="diamond" class="cls-1" d="M9.84,2.21,8.39.41A1,1,0,0,0,7.55,0H2.47a1,1,0,0,0-.85.42L.15,2.34a1,1,0,0,0,.1,1.19l4,4.19a1,1,0,0,0,1.5,0l4-4.29A1,1,0,0,0,9.84,2.21Zm-7.52-1A.5.5,0,0,1,2.74,1H7.26a.48.48,0,0,1,.41.23L8.76,2.5H1.29Zm3,5.44a.5.5,0,0,1-.75,0L1.52,3.5H8.39Z"/></g></g></svg>